# xmcd CD database file
#
# Track frame offsets:
#	150
#	50137
#	70568
#	122932
#	171353
#	209287
#	253578
#	281786
#	304901
#	338584
#
# Disc length: 4739 seconds
#
# Revision: 1
# Processed by: cddbd v1.5.2PL0 Copyright (c) Steve Scherf et al.
# Submitted via: CDex 1.70beta2
#
DISCID=9a12810a
DTITLE=Keith Anderson - Full of Soul "Live at Ovations"
DYEAR=2011
DGENRE=Jazz
TTITLE0=COLD DUCK TIME
TTITLE1=THE WORLD IS A GHETTO (PART 1)
TTITLE2=HARDGROOVE
TTITLE3=TUTU
TTITLE4=PASTOR T.
TTITLE5=MISTY
TTITLE6=BULLETT TRANE
TTITLE7=MERCY MERCY MERCY
TTITLE8=THE WORLD IS A GHETTO (PART 2)
TTITLE9=JUST BLOWING
EXTD=YEAR: 2011
EXTT0=
EXTT1=
EXTT2=
EXTT3=
EXTT4=
EXTT5=
EXTT6=
EXTT7=
EXTT8=
EXTT9=
PLAYORDER=
